<svg width="40" height="40" viewBox="0 0 40 40" fill="none" xmlns="http://www.w3.org/2000/svg">
<path d="M29.897 26.2323C29.3652 25.7551 28.8647 25.2474 28.3985 24.7121C23.2024 18.9092 22.7594 9.91114 27.3966 3.68726C24.8682 2.16862 22.0919 1.0582 19.1806 0.401171C14.9535 7.06365 14.2157 15.5416 17.1698 22.7887C17.5018 23.6075 17.8725 24.2246 18.289 25.0081C21.9916 26.2194 26.0176 26.8739 30.1331 26.4339C30.0515 26.3708 29.9735 26.3015 29.897 26.2323Z" fill="#155DFC"/>
<path d="M5.89154 26.6702C-3.24614 28.3255 -0.883899 41.2587 8.30746 39.9008C17.4451 38.2455 15.0822 25.3116 5.89154 26.6702Z" fill="#155DFC"/>
<path d="M39.7595 21.5497C39.3947 19.3104 38.718 17.1271 37.7472 15.0569C25.639 23.4351 7.85098 14.3264 8.72403 -3.05176e-05C5.66877 0.44158 2.71587 1.37667 -0.00646973 2.76463C1.10989 21.1701 23.4478 32.3938 39.9964 23.5363C39.9453 22.8664 39.8664 22.2042 39.7595 21.5497Z" fill="#155DFC"/>
<path d="M39.5105 30.8002C38.902 33.5808 37.8113 36.2463 36.283 38.6882C29.5119 37.1775 23.4392 33.0883 19.6908 27.5284C23.7851 28.5577 28.0672 28.7253 32.237 28.0193C34.4221 29.4324 36.9032 30.381 39.5105 30.8002Z" fill="#155DFC"/>
</svg>
