<svg viewBox="0 0 21 18" fill="none" xmlns="http://www.w3.org/2000/svg" xmlns:xlink="http://www.w3.org/1999/xlink" x="0" y="0"><path id="Vector_8" d="M20.25,0h-6.75c-0.582,0 -1.156,0.136 -1.677,0.396c-0.521,0.26 -0.974,0.638 -1.323,1.104c-0.349,-0.466 -0.802,-0.844 -1.323,-1.104c-0.521,-0.26 -1.095,-0.396 -1.677,-0.396h-6.75c-0.199,0 -0.39,0.079 -0.53,0.22c-0.141,0.14 -0.22,0.331 -0.22,0.53v13.5c0,0.199 0.079,0.39 0.22,0.53c0.14,0.141 0.331,0.22 0.53,0.22h6.75c0.597,0 1.169,0.237 1.591,0.659c0.422,0.422 0.659,0.994 0.659,1.591c0,0.199 0.079,0.39 0.22,0.53c0.14,0.141 0.331,0.22 0.53,0.22c0.199,0 0.39,-0.079 0.53,-0.22c0.141,-0.14 0.22,-0.331 0.22,-0.53c0,-0.597 0.237,-1.169 0.659,-1.591c0.422,-0.422 0.994,-0.659 1.591,-0.659h6.75c0.199,0 0.39,-0.079 0.53,-0.22c0.141,-0.14 0.22,-0.331 0.22,-0.53v-13.5c0,-0.199 -0.079,-0.39 -0.22,-0.53c-0.14,-0.141 -0.331,-0.22 -0.53,-0.22zM7.5,13.5h-6v-12h6c0.597,0 1.169,0.237 1.591,0.659c0.422,0.422 0.659,0.994 0.659,1.591v10.5c-0.649,-0.488 -1.438,-0.751 -2.25,-0.75zM19.5,13.5h-6c-0.812,-0.001 -1.601,0.262 -2.25,0.75v-10.5c0,-0.597 0.237,-1.169 0.659,-1.591c0.422,-0.422 0.994,-0.659 1.591,-0.659h6zM13.5,3.75h3.75c0.199,0 0.39,0.079 0.53,0.22c0.141,0.14 0.22,0.331 0.22,0.53c0,0.199 -0.079,0.39 -0.22,0.53c-0.14,0.141 -0.331,0.22 -0.53,0.22h-3.75c-0.199,0 -0.39,-0.079 -0.53,-0.22c-0.141,-0.14 -0.22,-0.331 -0.22,-0.53c0,-0.199 0.079,-0.39 0.22,-0.53c0.14,-0.141 0.331,-0.22 0.53,-0.22zM18,7.5c0,0.199 -0.079,0.39 -0.22,0.53c-0.14,0.141 -0.331,0.22 -0.53,0.22h-3.75c-0.199,0 -0.39,-0.079 -0.53,-0.22c-0.141,-0.14 -0.22,-0.331 -0.22,-0.53c0,-0.199 0.079,-0.39 0.22,-0.53c0.14,-0.141 0.331,-0.22 0.53,-0.22h3.75c0.199,0 0.39,0.079 0.53,0.22c0.141,0.14 0.22,0.331 0.22,0.53zM18,10.5c0,0.199 -0.079,0.39 -0.22,0.53c-0.14,0.141 -0.331,0.22 -0.53,0.22h-3.75c-0.199,0 -0.39,-0.079 -0.53,-0.22c-0.141,-0.14 -0.22,-0.331 -0.22,-0.53c0,-0.199 0.079,-0.39 0.22,-0.53c0.14,-0.141 0.331,-0.22 0.53,-0.22h3.75c0.199,0 0.39,0.079 0.53,0.22c0.141,0.14 0.22,0.331 0.22,0.53z" fill="currentColor"/></svg>