<svg viewBox="0 0 24 26" fill="none" xmlns="http://www.w3.org/2000/svg" xmlns:xlink="http://www.w3.org/1999/xlink" x="0" y="0"><path id="Vector" d="M22,2h-3v-1c0,-0.2652 -0.105,-0.5196 -0.293,-0.7071c-0.187,-0.1875 -0.442,-0.2929 -0.707,-0.2929c-0.265,0 -0.52,0.1054 -0.707,0.2929c-0.188,0.1875 -0.293,0.4419 -0.293,0.7071v1h-10v-1c0,-0.2652 -0.105,-0.5196 -0.293,-0.7071c-0.187,-0.1875 -0.442,-0.2929 -0.707,-0.2929c-0.265,0 -0.52,0.1054 -0.707,0.2929c-0.188,0.1875 -0.293,0.4419 -0.293,0.7071v1h-3c-0.53,0 -1.039,0.2107 -1.414,0.5858c-0.375,0.3751 -0.586,0.8838 -0.586,1.4142v20c0,0.5304 0.211,1.0391 0.586,1.4142c0.375,0.3751 0.884,0.5858 1.414,0.5858h20c0.53,0 1.039,-0.2107 1.414,-0.5858c0.375,-0.3751 0.586,-0.8838 0.586,-1.4142v-20c0,-0.5304 -0.211,-1.0391 -0.586,-1.4142c-0.375,-0.3751 -0.884,-0.5858 -1.414,-0.5858zM5,4v1c0,0.2652 0.105,0.5196 0.293,0.7071c0.187,0.1875 0.442,0.2929 0.707,0.2929c0.265,0 0.52,-0.1054 0.707,-0.2929c0.188,-0.1875 0.293,-0.4419 0.293,-0.7071v-1h10v1c0,0.2652 0.105,0.5196 0.293,0.7071c0.187,0.1875 0.442,0.2929 0.707,0.2929c0.265,0 0.52,-0.1054 0.707,-0.2929c0.188,-0.1875 0.293,-0.4419 0.293,-0.7071v-1h3v4h-20v-4zM22,24h-20v-14h20z" fill="currentColor"/></svg>