<svg viewBox="0 0 6.0007 11.0006" fill="none" xmlns="http://www.w3.org/2000/svg" xmlns:xlink="http://www.w3.org/1999/xlink" x="0" y="0"><path id="Vector_3" d="M5.8542,10.1463c0.0464,0.047 0.0833,0.102 0.1084,0.163c0.0251,0.06 0.0381,0.125 0.0381,0.191c0,0.066 -0.013,0.131 -0.0381,0.191c-0.0251,0.061 -0.062,0.116 -0.1084,0.163c-0.0465,0.046 -0.1017,0.083 -0.1623,0.108c-0.0607,0.025 -0.1258,0.038 -0.1915,0.038c-0.0657,0 -0.1307,-0.013 -0.1914,-0.038c-0.0607,-0.025 -0.1159,-0.062 -0.1623,-0.108l-5,-5c-0.0465,-0.047 -0.0834,-0.102 -0.1086,-0.163c-0.0251,-0.06 -0.0381,-0.125 -0.0381,-0.191c0,-0.066 0.013,-0.131 0.0381,-0.191c0.0252,-0.061 0.0621,-0.116 0.1086,-0.163l5,-5c0.0938,-0.094 0.221,-0.146 0.3537,-0.146c0.1327,0 0.2599,0.052 0.3538,0.146c0.0938,0.094 0.1465,0.221 0.1465,0.354c0,0.133 -0.0527,0.26 -0.1465,0.354l-4.6469,4.646z" fill="currentColor"/></svg>