<svg viewBox="0 0 6.0007 11.0006" fill="none" xmlns="http://www.w3.org/2000/svg" xmlns:xlink="http://www.w3.org/1999/xlink" x="0" y="0"><path id="Vector_2" d="M5.8542,5.8543l-5,5c-0.047,0.046 -0.102,0.083 -0.163,0.108c-0.06,0.025 -0.125,0.038 -0.191,0.038c-0.066,0 -0.131,-0.013 -0.191,-0.038c-0.061,-0.025 -0.116,-0.062 -0.163,-0.108c-0.046,-0.047 -0.083,-0.102 -0.108,-0.163c-0.025,-0.06 -0.038,-0.125 -0.038,-0.191c0,-0.066 0.013,-0.131 0.038,-0.191c0.025,-0.061 0.062,-0.116 0.108,-0.163l4.647,-4.646l-4.647,-4.646c-0.094,-0.094 -0.146,-0.221 -0.146,-0.354c0,-0.133 0.052,-0.26 0.146,-0.354c0.094,-0.094 0.221,-0.146 0.354,-0.146c0.133,0 0.26,0.052 0.354,0.146l5,5c0.046,0.047 0.083,0.102 0.108,0.163c0.025,0.06 0.038,0.125 0.038,0.191c0,0.066 -0.013,0.131 -0.038,0.191c-0.025,0.061 -0.062,0.116 -0.108,0.163z" fill="currentColor"/></svg>