<svg viewBox="0 0 9.001 16.5008" fill="none" xmlns="http://www.w3.org/2000/svg" xmlns:xlink="http://www.w3.org/1999/xlink" x="0" y="0"><path id="Vector" d="M8.781,15.2194c0.07,0.07 0.125,0.153 0.163,0.244c0.038,0.091 0.057,0.188 0.057,0.287c0,0.099 -0.019,0.196 -0.057,0.287c-0.038,0.091 -0.093,0.174 -0.163,0.244c-0.069,0.069 -0.152,0.125 -0.243,0.162c-0.091,0.038 -0.189,0.057 -0.287,0.057c-0.099,0 -0.197,-0.019 -0.288,-0.057c-0.091,-0.037 -0.173,-0.093 -0.243,-0.162l-7.5,-7.5c-0.07,-0.07 -0.125,-0.153 -0.163,-0.244c-0.038,-0.091 -0.057,-0.188 -0.057,-0.287c0,-0.099 0.019,-0.196 0.057,-0.287c0.038,-0.091 0.093,-0.174 0.163,-0.244l7.5,-7.4996c0.141,-0.1408 0.332,-0.2198 0.531,-0.2198c0.199,0 0.389,0.079 0.53,0.2198c0.141,0.1407 0.22,0.3316 0.22,0.5306c0,0.199 -0.079,0.3899 -0.22,0.5306l-6.97,6.9694z" fill="black"/></svg>