<svg viewBox="0 0 16.25 16.25" fill="none" xmlns="http://www.w3.org/2000/svg" xmlns:xlink="http://www.w3.org/1999/xlink" x="0" y="0"><path id="Vector_9" d="M8.125,0c-1.607,0 -3.178,0.477 -4.514,1.369c-1.336,0.893 -2.378,2.162 -2.993,3.647c-0.614,1.484 -0.775,3.118 -0.462,4.694c0.314,1.576 1.087,3.024 2.224,4.16c1.136,1.137 2.584,1.91 4.16,2.224c1.576,0.313 3.21,0.152 4.694,-0.462c1.485,-0.615 2.754,-1.657 3.647,-2.993c0.892,-1.336 1.369,-2.907 1.369,-4.514c-0.002,-2.154 -0.859,-4.219 -2.382,-5.743c-1.524,-1.523 -3.589,-2.38 -5.743,-2.382zM8.125,15c-1.36,0 -2.689,-0.403 -3.82,-1.159c-1.13,-0.755 -2.011,-1.829 -2.532,-3.085c-0.52,-1.256 -0.656,-2.639 -0.391,-3.972c0.265,-1.334 0.92,-2.559 1.882,-3.52c0.961,-0.962 2.186,-1.617 3.52,-1.882c1.333,-0.265 2.716,-0.129 3.972,0.391c1.256,0.521 2.33,1.402 3.085,2.532c0.756,1.131 1.159,2.46 1.159,3.82c-0.002,1.823 -0.727,3.57 -2.016,4.859c-1.289,1.289 -3.036,2.014 -4.859,2.016zM13.125,8.125c0,0.166 -0.066,0.325 -0.183,0.442c-0.117,0.117 -0.276,0.183 -0.442,0.183h-4.375c-0.166,0 -0.325,-0.066 -0.442,-0.183c-0.117,-0.117 -0.183,-0.276 -0.183,-0.442v-4.375c0,-0.166 0.066,-0.325 0.183,-0.442c0.117,-0.117 0.276,-0.183 0.442,-0.183c0.166,0 0.325,0.066 0.442,0.183c0.117,0.117 0.183,0.276 0.183,0.442v3.75h3.75c0.166,0 0.325,0.066 0.442,0.183c0.117,0.117 0.183,0.276 0.183,0.442z" fill="currentColor"/></svg>