<svg viewBox="0 0 12.5007 12.5007" fill="none" xmlns="http://www.w3.org/2000/svg" xmlns:xlink="http://www.w3.org/1999/xlink" x="0" y="0"><path id="Vector_7" d="M12.3175,11.4333c0.058,0.058 0.104,0.127 0.136,0.203c0.031,0.076 0.047,0.157 0.047,0.239c0,0.082 -0.016,0.163 -0.047,0.239c-0.032,0.076 -0.078,0.145 -0.136,0.203c-0.058,0.058 -0.127,0.104 -0.203,0.136c-0.076,0.031 -0.157,0.047 -0.239,0.047c-0.082,0 -0.164,-0.016 -0.239,-0.047c-0.076,-0.032 -0.145,-0.078 -0.203,-0.136l-5.183,-5.183l-5.183,5.183c-0.117,0.118 -0.276,0.183 -0.442,0.183c-0.166,0 -0.325,-0.065 -0.442,-0.183c-0.118,-0.117 -0.183,-0.276 -0.183,-0.442c0,-0.166 0.065,-0.325 0.183,-0.442l5.183,-5.183l-5.183,-5.183c-0.118,-0.117 -0.183,-0.276 -0.183,-0.442c0,-0.166 0.065,-0.325 0.183,-0.442c0.117,-0.117 0.276,-0.183 0.442,-0.183c0.166,0 0.325,0.066 0.442,0.183l5.183,5.183l5.183,-5.183c0.117,-0.117 0.276,-0.183 0.442,-0.183c0.166,0 0.325,0.066 0.442,0.183c0.117,0.117 0.183,0.276 0.183,0.442c0,0.166 -0.066,0.325 -0.183,0.442l-5.184,5.183z" fill="currentColor"/></svg>