<svg viewBox="0 0 15 15" fill="none" xmlns="http://www.w3.org/2000/svg" xmlns:xlink="http://www.w3.org/1999/xlink" x="0" y="0"><path id="Vector_6" d="M15,5.625c0,0.166 -0.066,0.325 -0.183,0.442c-0.117,0.117 -0.276,0.183 -0.442,0.183c-0.166,0 -0.325,-0.066 -0.442,-0.183c-0.117,-0.117 -0.183,-0.276 -0.183,-0.442v-3.491l-5.182,5.183c-0.117,0.117 -0.276,0.183 -0.442,0.183c-0.166,0 -0.325,-0.066 -0.442,-0.183c-0.118,-0.117 -0.184,-0.276 -0.184,-0.442c0,-0.166 0.066,-0.325 0.184,-0.442l5.182,-5.183h-3.491c-0.166,0 -0.325,-0.066 -0.442,-0.183c-0.117,-0.117 -0.183,-0.276 -0.183,-0.442c0,-0.166 0.066,-0.325 0.183,-0.442c0.117,-0.117 0.276,-0.183 0.442,-0.183h5c0.166,0 0.325,0.066 0.442,0.183c0.117,0.117 0.183,0.276 0.183,0.442zM11.875,7.5c-0.166,0 -0.325,0.066 -0.442,0.183c-0.117,0.117 -0.183,0.276 -0.183,0.442v5.625h-10v-10h5.625c0.166,0 0.325,-0.066 0.442,-0.183c0.117,-0.117 0.183,-0.276 0.183,-0.442c0,-0.166 -0.066,-0.325 -0.183,-0.442c-0.117,-0.117 -0.276,-0.183 -0.442,-0.183h-5.625c-0.332,0 -0.649,0.132 -0.884,0.366c-0.234,0.235 -0.366,0.552 -0.366,0.884v10c0,0.332 0.132,0.649 0.366,0.884c0.235,0.234 0.552,0.366 0.884,0.366h10c0.332,0 0.649,-0.132 0.884,-0.366c0.234,-0.235 0.366,-0.552 0.366,-0.884v-5.625c0,-0.166 -0.066,-0.325 -0.183,-0.442c-0.117,-0.117 -0.276,-0.183 -0.442,-0.183z" fill="currentColor"/></svg>