<svg width="42" height="42" viewBox="0 0 42 42" fill="none" xmlns="http://www.w3.org/2000/svg">
<rect width="42" height="42" rx="21" fill="#A4F4CF"/>
<path d="M30 12.75V16.125C30 16.3239 29.921 16.5147 29.7803 16.6553C29.6397 16.796 29.4489 16.875 29.25 16.875C29.0511 16.875 28.8603 16.796 28.7197 16.6553C28.579 16.5147 28.5 16.3239 28.5 16.125V13.5H25.875C25.6761 13.5 25.4853 13.421 25.3447 13.2803C25.204 13.1397 25.125 12.9489 25.125 12.75C25.125 12.5511 25.204 12.3603 25.3447 12.2197C25.4853 12.079 25.6761 12 25.875 12H29.25C29.4489 12 29.6397 12.079 29.7803 12.2197C29.921 12.3603 30 12.5511 30 12.75ZM29.25 25.125C29.0511 25.125 28.8603 25.204 28.7197 25.3447C28.579 25.4853 28.5 25.6761 28.5 25.875V28.5H25.875C25.6761 28.5 25.4853 28.579 25.3447 28.7197C25.204 28.8603 25.125 29.0511 25.125 29.25C25.125 29.4489 25.204 29.6397 25.3447 29.7803C25.4853 29.921 25.6761 30 25.875 30H29.25C29.4489 30 29.6397 29.921 29.7803 29.7803C29.921 29.6397 30 29.4489 30 29.25V25.875C30 25.6761 29.921 25.4853 29.7803 25.3447C29.6397 25.204 29.4489 25.125 29.25 25.125ZM16.125 28.5H13.5V25.875C13.5 25.6761 13.421 25.4853 13.2803 25.3447C13.1397 25.204 12.9489 25.125 12.75 25.125C12.5511 25.125 12.3603 25.204 12.2197 25.3447C12.079 25.4853 12 25.6761 12 25.875V29.25C12 29.4489 12.079 29.6397 12.2197 29.7803C12.3603 29.921 12.5511 30 12.75 30H16.125C16.3239 30 16.5147 29.921 16.6553 29.7803C16.796 29.6397 16.875 29.4489 16.875 29.25C16.875 29.0511 16.796 28.8603 16.6553 28.7197C16.5147 28.579 16.3239 28.5 16.125 28.5ZM12.75 16.875C12.9489 16.875 13.1397 16.796 13.2803 16.6553C13.421 16.5147 13.5 16.3239 13.5 16.125V13.5H16.125C16.3239 13.5 16.5147 13.421 16.6553 13.2803C16.796 13.1397 16.875 12.9489 16.875 12.75C16.875 12.5511 16.796 12.3603 16.6553 12.2197C16.5147 12.079 16.3239 12 16.125 12H12.75C12.5511 12 12.3603 12.079 12.2197 12.2197C12.079 12.3603 12 12.5511 12 12.75V16.125C12 16.3239 12.079 16.5147 12.2197 16.6553C12.3603 16.796 12.5511 16.875 12.75 16.875ZM25.5 25.5C25.3835 25.5003 25.2685 25.4734 25.1642 25.4214C25.0599 25.3695 24.9691 25.294 24.8991 25.2009C24.445 24.5955 23.8561 24.1041 23.1792 23.7656C22.5023 23.4271 21.7559 23.2509 20.9991 23.2509C20.2422 23.2509 19.4958 23.4271 18.8189 23.7656C18.142 24.1041 17.5532 24.5955 17.0991 25.2009C16.9795 25.3601 16.8016 25.4652 16.6045 25.4931C16.4074 25.5211 16.2073 25.4696 16.0481 25.35C15.889 25.2304 15.7839 25.0525 15.7559 24.8554C15.728 24.6583 15.7795 24.4582 15.8991 24.2991C16.5637 23.4091 17.4496 22.7084 18.4688 22.2666C17.9103 21.7567 17.519 21.0899 17.3463 20.3537C17.1736 19.6175 17.2275 18.8462 17.5009 18.1412C17.7744 17.4362 18.2546 16.8303 18.8785 16.403C19.5025 15.9758 20.241 15.7472 20.9972 15.7472C21.7534 15.7472 22.4919 15.9758 23.1159 16.403C23.7398 16.8303 24.22 17.4362 24.4934 18.1412C24.7669 18.8462 24.8208 19.6175 24.6481 20.3537C24.4753 21.0899 24.0841 21.7567 23.5256 22.2666C24.5454 22.7081 25.432 23.4088 26.0972 24.2991C26.1809 24.4103 26.232 24.5426 26.2447 24.6812C26.2575 24.8199 26.2314 24.9593 26.1694 25.0839C26.1075 25.2086 26.012 25.3135 25.8938 25.387C25.7756 25.4605 25.6392 25.4996 25.5 25.5ZM21 21.75C21.445 21.75 21.88 21.618 22.25 21.3708C22.62 21.1236 22.9084 20.7722 23.0787 20.361C23.249 19.9499 23.2936 19.4975 23.2068 19.061C23.12 18.6246 22.9057 18.2237 22.591 17.909C22.2763 17.5943 21.8754 17.38 21.439 17.2932C21.0025 17.2064 20.5501 17.251 20.139 17.4213C19.7278 17.5916 19.3764 17.88 19.1292 18.25C18.882 18.62 18.75 19.055 18.75 19.5C18.75 20.0967 18.9871 20.669 19.409 21.091C19.831 21.5129 20.4033 21.75 21 21.75Z" fill="#262626"/>
</svg>
