<svg viewBox="0 0 59.9926 60" fill="none" xmlns="http://www.w3.org/2000/svg" xmlns:xlink="http://www.w3.org/1999/xlink" x="0" y="0"><g id="Layer 6 copy">
<path id="Vector_3" d="M44.84,39.348c-0.79,-0.715 -1.54,-1.477 -2.24,-2.28c-7.8,-8.704 -8.46,-22.2013 -1.51,-31.5371c-3.79,-2.278 -7.95,-3.9436 -12.32,-4.9291c-6.34,9.9937 -7.45,22.7106 -3.02,33.5812c0.5,1.228 1.06,2.154 1.68,3.329c5.56,1.817 11.59,2.799 17.77,2.139c-0.12,-0.095 -0.24,-0.199 -0.36,-0.303z" fill="currentColor"/>
<path id="Vector_4" d="M8.84,40.005c-13.71,2.483 -10.17,21.883 3.62,19.846c13.71,-2.483 10.16,-21.884 -3.62,-19.846z" fill="currentColor"/>
<path id="Vector_5" d="M59.64,32.324c-0.55,-3.358 -1.56,-6.6334 -3.02,-9.7386c-18.16,12.5676 -44.85,-1.0958 -43.54,-22.5854c-4.58,0.6624 -9.01,2.065 -13.09,4.1469c1.67,27.6081 35.18,44.4441 60,31.1571c-0.07,-1.004 -0.19,-1.998 -0.35,-2.98z" fill="currentColor"/>
<path id="Vector_6" d="M59.27,46.2c-0.91,4.171 -2.55,8.17 -4.84,11.832c-10.16,-2.266 -19.27,-8.4 -24.89,-16.739c6.14,1.544 12.56,1.795 18.82,0.736c3.28,2.12 7,3.542 10.91,4.171z" fill="currentColor"/>
</g></svg>