<svg viewBox="0 0 19.5213 19.5213" fill="none" xmlns="http://www.w3.org/2000/svg" xmlns:xlink="http://www.w3.org/1999/xlink" x="0" y="0"><path id="Vector_11" d="M12.0205,8.2707c0,0.199 -0.079,0.39 -0.219,0.53c-0.141,0.141 -0.332,0.22 -0.531,0.22h-2.25v2.25c0,0.199 -0.079,0.39 -0.219,0.53c-0.141,0.141 -0.332,0.22 -0.531,0.22c-0.199,0 -0.389,-0.079 -0.53,-0.22c-0.141,-0.14 -0.22,-0.331 -0.22,-0.53v-2.25h-2.25c-0.199,0 -0.389,-0.079 -0.53,-0.22c-0.141,-0.14 -0.22,-0.331 -0.22,-0.53c0,-0.199 0.079,-0.39 0.22,-0.53c0.141,-0.141 0.331,-0.22 0.53,-0.22h2.25v-2.25c0,-0.199 0.079,-0.39 0.22,-0.53c0.141,-0.141 0.331,-0.22 0.53,-0.22c0.199,0 0.39,0.079 0.531,0.22c0.14,0.14 0.219,0.331 0.219,0.53v2.25h2.25c0.199,0 0.39,0.079 0.531,0.22c0.14,0.14 0.219,0.331 0.219,0.53zM19.3015,19.3017c-0.07,0.069 -0.153,0.125 -0.244,0.162c-0.091,0.038 -0.188,0.058 -0.287,0.058c-0.098,0 -0.196,-0.02 -0.287,-0.058c-0.091,-0.037 -0.174,-0.093 -0.243,-0.162l-4.694,-4.694c-1.633,1.36 -3.728,2.039 -5.849,1.894c-2.121,-0.145 -4.104,-1.102 -5.537,-2.672c-1.434,-1.57 -2.207,-3.632 -2.158,-5.757c0.048,-2.125 0.914,-4.15 2.417,-5.653c1.503,-1.503 3.528,-2.369 5.653,-2.418c2.125,-0.048 4.187,0.725 5.757,2.158c1.57,1.434 2.527,3.417 2.672,5.538c0.145,2.121 -0.534,4.216 -1.894,5.849l4.694,4.693c0.07,0.07 0.125,0.153 0.163,0.244c0.037,0.091 0.057,0.188 0.057,0.287c0,0.099 -0.02,0.196 -0.057,0.287c-0.038,0.091 -0.093,0.174 -0.163,0.244zM8.2705,15.0207c1.335,0 2.64,-0.396 3.75,-1.138c1.11,-0.741 1.975,-1.795 2.486,-3.029c0.511,-1.233 0.645,-2.59 0.384,-3.9c-0.26,-1.309 -0.903,-2.512 -1.847,-3.456c-0.944,-0.944 -2.147,-1.587 -3.456,-1.847c-1.309,-0.261 -2.667,-0.127 -3.9,0.384c-1.233,0.511 -2.288,1.376 -3.029,2.486c-0.742,1.11 -1.138,2.415 -1.138,3.75c0.002,1.79 0.714,3.505 1.979,4.771c1.266,1.265 2.982,1.977 4.771,1.979z" fill="currentColor"/></svg>