<svg viewBox="0 0 22.5014 16.4974" fill="none" xmlns="http://www.w3.org/2000/svg" xmlns:xlink="http://www.w3.org/1999/xlink" x="0" y="0"><path id="Vector_9" d="M22.501,8.2468c0.005,1.786 -0.574,3.525 -1.65,4.951c-0.059,0.079 -0.133,0.145 -0.218,0.195c-0.085,0.05 -0.179,0.083 -0.276,0.097c-0.098,0.014 -0.197,0.008 -0.293,-0.016c-0.095,-0.025 -0.185,-0.068 -0.264,-0.127c-0.078,-0.059 -0.145,-0.133 -0.195,-0.218c-0.05,-0.085 -0.083,-0.179 -0.097,-0.277c-0.014,-0.097 -0.008,-0.197 0.016,-0.292c0.025,-0.095 0.068,-0.185 0.127,-0.264c0.881,-1.166 1.355,-2.588 1.35,-4.049c0,-1.79 -0.711,-3.507 -1.977,-4.773c-1.266,-1.266 -2.982,-1.977 -4.773,-1.977c-1.79,0 -3.507,0.711 -4.773,1.977c-1.265,1.266 -1.977,2.983 -1.977,4.773c0,0.199 -0.079,0.39 -0.219,0.53c-0.141,0.141 -0.332,0.22 -0.531,0.22c-0.199,0 -0.389,-0.079 -0.53,-0.22c-0.141,-0.14 -0.22,-0.331 -0.22,-0.53c0,-0.757 0.104,-1.51 0.309,-2.239c-0.102,-0.011 -0.205,-0.011 -0.309,-0.011c-1.193,0 -2.338,0.474 -3.182,1.318c-0.844,0.844 -1.318,1.989 -1.318,3.182c0,1.193 0.474,2.338 1.318,3.182c0.844,0.844 1.989,1.318 3.182,1.318h2.25c0.199,0 0.39,0.079 0.531,0.22c0.14,0.14 0.219,0.331 0.219,0.53c0,0.199 -0.079,0.39 -0.219,0.53c-0.141,0.141 -0.332,0.22 -0.531,0.22h-2.25c-0.824,0 -1.64,-0.17 -2.397,-0.499c-0.756,-0.329 -1.436,-0.811 -1.998,-1.415c-0.562,-0.604 -0.993,-1.318 -1.266,-2.096c-0.274,-0.778 -0.384,-1.604 -0.324,-2.427c0.06,-0.822 0.289,-1.624 0.673,-2.354c0.383,-0.73 0.913,-1.373 1.557,-1.889c0.643,-0.516 1.386,-0.894 2.182,-1.11c0.796,-0.217 1.628,-0.266 2.444,-0.146c0.831,-1.662 2.199,-2.995 3.882,-3.783c1.683,-0.788 3.583,-0.984 5.391,-0.557c1.809,0.426 3.42,1.451 4.574,2.907c1.154,1.457 1.782,3.261 1.782,5.119zM15.971,12.2158l-1.72,1.721v-5.69c0,-0.199 -0.079,-0.39 -0.219,-0.53c-0.141,-0.141 -0.332,-0.22 -0.531,-0.22c-0.199,0 -0.389,0.079 -0.53,0.22c-0.141,0.14 -0.22,0.331 -0.22,0.53v5.69l-1.719,-1.721c-0.141,-0.14 -0.332,-0.219 -0.531,-0.219c-0.199,0 -0.39,0.079 -0.53,0.219c-0.141,0.141 -0.22,0.332 -0.22,0.531c0,0.199 0.079,0.39 0.22,0.531l3,3c0.069,0.069 0.152,0.125 0.243,0.162c0.091,0.038 0.189,0.058 0.287,0.058c0.099,0 0.197,-0.02 0.288,-0.058c0.091,-0.037 0.173,-0.093 0.243,-0.162l3,-3c0.141,-0.141 0.22,-0.332 0.22,-0.531c0,-0.199 -0.079,-0.39 -0.22,-0.531c-0.141,-0.14 -0.332,-0.219 -0.531,-0.219c-0.199,0 -0.39,0.079 -0.53,0.219z" fill="currentColor"/></svg>