<svg viewBox="0 0 19.5 16.5" fill="none" xmlns="http://www.w3.org/2000/svg" xmlns:xlink="http://www.w3.org/1999/xlink" x="0" y="0"><path id="Vector_7" d="M16.5,3.75v3c0,0.199 -0.079,0.39 -0.22,0.53c-0.14,0.141 -0.331,0.22 -0.53,0.22c-0.199,0 -0.39,-0.079 -0.53,-0.22c-0.141,-0.14 -0.22,-0.331 -0.22,-0.53v-2.25h-2.25c-0.199,0 -0.39,-0.079 -0.53,-0.22c-0.141,-0.14 -0.22,-0.331 -0.22,-0.53c0,-0.199 0.079,-0.39 0.22,-0.53c0.14,-0.141 0.331,-0.22 0.53,-0.22h3c0.199,0 0.39,0.079 0.53,0.22c0.141,0.14 0.22,0.331 0.22,0.53zM6.75,12h-2.25v-2.25c0,-0.199 -0.079,-0.39 -0.22,-0.53c-0.14,-0.141 -0.331,-0.22 -0.53,-0.22c-0.199,0 -0.39,0.079 -0.53,0.22c-0.141,0.14 -0.22,0.331 -0.22,0.53v3c0,0.199 0.079,0.39 0.22,0.53c0.14,0.141 0.331,0.22 0.53,0.22h3c0.199,0 0.39,-0.079 0.53,-0.22c0.141,-0.14 0.22,-0.331 0.22,-0.53c0,-0.199 -0.079,-0.39 -0.22,-0.53c-0.14,-0.141 -0.331,-0.22 -0.53,-0.22zM19.5,1.5v13.5c0,0.398 -0.158,0.779 -0.439,1.061c-0.282,0.281 -0.663,0.439 -1.061,0.439h-16.5c-0.398,0 -0.779,-0.158 -1.061,-0.439c-0.281,-0.282 -0.439,-0.663 -0.439,-1.061v-13.5c0,-0.398 0.158,-0.779 0.439,-1.061c0.282,-0.281 0.663,-0.439 1.061,-0.439h16.5c0.398,0 0.779,0.158 1.061,0.439c0.281,0.282 0.439,0.663 0.439,1.061zM18,15v-13.5h-16.5v13.5z" fill="currentColor"/></svg>