<svg viewBox="0 0 21 18" fill="none" xmlns="http://www.w3.org/2000/svg" xmlns:xlink="http://www.w3.org/1999/xlink" x="0" y="0"><path id="Vector_8" d="M18.625,3.75h-1.375v-3c0,-0.199 -0.079,-0.39 -0.22,-0.53c-0.14,-0.141 -0.331,-0.22 -0.53,-0.22h-12c-0.199,0 -0.39,0.079 -0.53,0.22c-0.141,0.14 -0.22,0.331 -0.22,0.53v3h-1.375c-1.31,0 -2.375,1.01 -2.375,2.25v7.5c0,0.199 0.079,0.39 0.22,0.53c0.14,0.141 0.331,0.22 0.53,0.22h3v3c0,0.199 0.079,0.39 0.22,0.53c0.14,0.141 0.331,0.22 0.53,0.22h12c0.199,0 0.39,-0.079 0.53,-0.22c0.141,-0.14 0.22,-0.331 0.22,-0.53v-3h3c0.199,0 0.39,-0.079 0.53,-0.22c0.141,-0.14 0.22,-0.331 0.22,-0.53v-7.5c0,-1.24 -1.065,-2.25 -2.375,-2.25zM5.25,1.5h10.5v2.25h-10.5zM15.75,16.5h-10.5v-4.5h10.5zM19.5,12.75h-2.25v-1.5c0,-0.199 -0.079,-0.39 -0.22,-0.53c-0.14,-0.141 -0.331,-0.22 -0.53,-0.22h-12c-0.199,0 -0.39,0.079 -0.53,0.22c-0.141,0.14 -0.22,0.331 -0.22,0.53v1.5h-2.25v-6.75c0,-0.413 0.393,-0.75 0.875,-0.75h16.25c0.482,0 0.875,0.337 0.875,0.75zM17.25,7.875c0,0.223 -0.066,0.44 -0.19,0.625c-0.123,0.185 -0.299,0.329 -0.504,0.414c-0.206,0.086 -0.432,0.108 -0.65,0.064c-0.219,-0.043 -0.419,-0.15 -0.576,-0.308c-0.158,-0.157 -0.265,-0.357 -0.308,-0.576c-0.044,-0.218 -0.022,-0.444 0.064,-0.65c0.085,-0.205 0.229,-0.381 0.414,-0.504c0.185,-0.124 0.402,-0.19 0.625,-0.19c0.298,0 0.585,0.119 0.795,0.33c0.211,0.21 0.33,0.497 0.33,0.795z" fill="currentColor"/></svg>