<svg viewBox="0 0 19.5 16.5" fill="none" xmlns="http://www.w3.org/2000/svg" xmlns:xlink="http://www.w3.org/1999/xlink" x="0" y="0"><path id="Vector_2" d="M18,0h-16.5c-0.4,0 -0.78,0.158 -1.06,0.439c-0.28,0.282 -0.44,0.663 -0.44,1.061v13.5c0,0.398 0.16,0.779 0.44,1.061c0.28,0.281 0.66,0.439 1.06,0.439h16.5c0.4,0 0.78,-0.158 1.06,-0.439c0.28,-0.282 0.44,-0.663 0.44,-1.061v-13.5c0,-0.398 -0.16,-0.779 -0.44,-1.061c-0.28,-0.281 -0.66,-0.439 -1.06,-0.439zM1.5,10.5h1.5c0.2,0 0.39,-0.079 0.53,-0.22c0.14,-0.14 0.22,-0.331 0.22,-0.53c0,-0.199 -0.08,-0.39 -0.22,-0.53c-0.14,-0.141 -0.33,-0.22 -0.53,-0.22h-1.5v-1.5h1.5c0.2,0 0.39,-0.079 0.53,-0.22c0.14,-0.14 0.22,-0.331 0.22,-0.53c0,-0.199 -0.08,-0.39 -0.22,-0.53c-0.14,-0.141 -0.33,-0.22 -0.53,-0.22h-1.5v-1.5h1.5c0.2,0 0.39,-0.079 0.53,-0.22c0.14,-0.14 0.22,-0.331 0.22,-0.53c0,-0.199 -0.08,-0.39 -0.22,-0.53c-0.14,-0.141 -0.33,-0.22 -0.53,-0.22h-1.5v-1.5h3.75v13.5h-3.75zM18,15h-11.25v-13.5h11.25z" fill="currentColor"/></svg>