<svg viewBox="0 0 42.0022 37.5004" fill="none" xmlns="http://www.w3.org/2000/svg" xmlns:xlink="http://www.w3.org/1999/xlink" x="0" y="0"><path id="Vector_12" d="M41.402,30.7671l-16.397,-28.476c-0.41,-0.697 -0.995,-1.276 -1.697,-1.678c-0.702,-0.402 -1.497,-0.613 -2.306,-0.613c-0.809,0 -1.604,0.211 -2.306,0.613c-0.702,0.402 -1.287,0.981 -1.697,1.678l-16.397,28.476c-0.394,0.675 -0.602,1.442 -0.602,2.224c0,0.781 0.208,1.549 0.602,2.223c0.405,0.702 0.988,1.284 1.692,1.685c0.703,0.402 1.501,0.609 2.311,0.601h32.794c0.809,0.008 1.606,-0.2 2.309,-0.601c0.703,-0.402 1.286,-0.983 1.69,-1.685c0.395,-0.674 0.603,-1.441 0.604,-2.223c0.001,-0.781 -0.206,-1.549 -0.6,-2.224zM38.801,33.7131c-0.143,0.243 -0.348,0.445 -0.594,0.583c-0.247,0.139 -0.526,0.209 -0.808,0.204h-32.794c-0.282,0.005 -0.561,-0.065 -0.808,-0.204c-0.246,-0.138 -0.451,-0.34 -0.594,-0.583c-0.13,-0.22 -0.198,-0.47 -0.198,-0.724c0,-0.255 0.068,-0.505 0.198,-0.724l16.397,-28.476c0.145,-0.242 0.351,-0.443 0.598,-0.583c0.246,-0.139 0.525,-0.212 0.808,-0.212c0.283,0 0.561,0.073 0.808,0.212c0.246,0.14 0.452,0.341 0.598,0.583l16.397,28.476c0.128,0.22 0.195,0.47 0.194,0.725c-0.001,0.254 -0.071,0.504 -0.202,0.723zM19.502,22.5001v-7.5c0,-0.398 0.158,-0.779 0.439,-1.061c0.282,-0.281 0.663,-0.439 1.061,-0.439c0.398,0 0.779,0.158 1.061,0.439c0.281,0.282 0.439,0.663 0.439,1.061v7.5c0,0.398 -0.158,0.779 -0.439,1.061c-0.282,0.281 -0.663,0.439 -1.061,0.439c-0.398,0 -0.779,-0.158 -1.061,-0.439c-0.281,-0.282 -0.439,-0.663 -0.439,-1.061zM23.252,29.2501c0,0.445 -0.132,0.88 -0.379,1.25c-0.247,0.37 -0.599,0.658 -1.01,0.829c-0.411,0.17 -0.863,0.215 -1.3,0.128c-0.436,-0.087 -0.837,-0.301 -1.152,-0.616c-0.315,-0.315 -0.529,-0.716 -0.616,-1.152c-0.087,-0.437 -0.042,-0.889 0.128,-1.3c0.171,-0.411 0.459,-0.763 0.829,-1.01c0.37,-0.247 0.805,-0.379 1.25,-0.379c0.597,0 1.169,0.237 1.591,0.659c0.422,0.422 0.659,0.994 0.659,1.591z" fill="currentColor"/></svg>