<svg width="42" height="42" viewBox="0 0 42 42" fill="none" xmlns="http://www.w3.org/2000/svg">
<rect width="42" height="42" rx="21" fill="#B8E6FE"/>
<path d="M30.2372 14.2884L21.2372 11.2884C21.0832 11.2371 20.9168 11.2371 20.7628 11.2884L11.7628 14.2884C11.6135 14.3382 11.4836 14.4337 11.3915 14.5614C11.2995 14.6891 11.25 14.8426 11.25 15V22.5C11.25 22.6989 11.329 22.8897 11.4697 23.0303C11.6103 23.171 11.8011 23.25 12 23.25C12.1989 23.25 12.3897 23.171 12.5303 23.0303C12.671 22.8897 12.75 22.6989 12.75 22.5V16.0406L15.8991 17.0897C15.0624 18.4414 14.7963 20.0698 15.1593 21.6175C15.5223 23.1652 16.4846 24.5056 17.835 25.3444C16.1475 26.0062 14.6888 27.2034 13.6219 28.8403C13.5664 28.9228 13.5278 29.0154 13.5085 29.1129C13.4891 29.2104 13.4894 29.3108 13.5091 29.4082C13.5289 29.5056 13.5678 29.5981 13.6237 29.6803C13.6795 29.7626 13.7512 29.8329 13.8344 29.8872C13.9177 29.9415 14.0109 29.9787 14.1086 29.9966C14.2064 30.0146 14.3067 30.0129 14.4039 29.9918C14.501 29.9706 14.5929 29.9304 14.6743 29.8733C14.7557 29.8163 14.825 29.7437 14.8781 29.6597C16.2909 27.4922 18.5222 26.25 21 26.25C23.4778 26.25 25.7091 27.4922 27.1219 29.6597C27.2319 29.8232 27.4018 29.9368 27.5949 29.976C27.788 30.0152 27.9888 29.9768 28.1539 29.8692C28.3189 29.7615 28.435 29.5933 28.4769 29.4007C28.5189 29.2082 28.4834 29.0069 28.3781 28.8403C27.3112 27.2034 25.8469 26.0062 24.165 25.3444C25.5141 24.5056 26.4755 23.1661 26.8384 21.6196C27.2013 20.073 26.9361 18.4457 26.1009 17.0944L30.2372 15.7162C30.3866 15.6665 30.5165 15.571 30.6086 15.4433C30.7006 15.3156 30.7502 15.1621 30.7502 15.0047C30.7502 14.8472 30.7006 14.6938 30.6086 14.5661C30.5165 14.4384 30.3866 14.3429 30.2372 14.2931V14.2884ZM25.5 20.25C25.5002 20.9614 25.3317 21.6628 25.0084 22.2965C24.6851 22.9302 24.2161 23.4782 23.6399 23.8955C23.0638 24.3129 22.3969 24.5877 21.694 24.6974C20.9911 24.8072 20.2722 24.7486 19.5962 24.5267C18.9203 24.3048 18.3066 23.9258 17.8056 23.4207C17.3045 22.9157 16.9303 22.2991 16.7137 21.6214C16.4971 20.9438 16.4442 20.2244 16.5594 19.5224C16.6747 18.8204 16.9547 18.1557 17.3766 17.5828L20.7628 18.7078C20.9168 18.7591 21.0832 18.7591 21.2372 18.7078L24.6234 17.5828C25.1932 18.3553 25.5005 19.2901 25.5 20.25ZM21 17.2097L14.3719 15L21 12.7903L27.6281 15L21 17.2097Z" fill="#262626"/>
</svg>
