<svg width="42" height="42" viewBox="0 0 42 42" fill="none" xmlns="http://www.w3.org/2000/svg">
<rect width="42" height="42" rx="21" fill="#C6D2FF"/>
<path d="M11.55 20.85C11.6288 20.9091 11.7185 20.9521 11.8139 20.9765C11.9093 21.001 12.0086 21.0064 12.1061 20.9925C12.2036 20.9785 12.2974 20.9455 12.3821 20.8954C12.4669 20.8452 12.5409 20.7788 12.6 20.7C13.0541 20.0945 13.6429 19.6031 14.3198 19.2647C14.9968 18.9262 15.7432 18.75 16.5 18.75C17.2568 18.75 18.0032 18.9262 18.6802 19.2647C19.3571 19.6031 19.9459 20.0945 20.4 20.7C20.5195 20.859 20.6972 20.964 20.8941 20.992C21.091 21.0199 21.291 20.9685 21.45 20.8491C21.5067 20.8069 21.5569 20.7567 21.5991 20.7C22.0532 20.0945 22.642 19.6031 23.3189 19.2647C23.9958 18.9262 24.7422 18.75 25.4991 18.75C26.2559 18.75 27.0023 18.9262 27.6792 19.2647C28.3561 19.6031 28.945 20.0945 29.3991 20.7C29.5185 20.8591 29.6963 20.9643 29.8933 20.9923C30.0903 21.0204 30.2904 20.969 30.4495 20.8495C30.6087 20.7301 30.7138 20.5523 30.7419 20.3553C30.7699 20.1583 30.7185 19.9582 30.5991 19.7991C29.9352 18.9091 29.0499 18.2083 28.0312 17.7666C28.5897 17.2567 28.981 16.5899 29.1537 15.8537C29.3264 15.1175 29.2725 14.3462 28.9991 13.6412C28.7256 12.9362 28.2454 12.3303 27.6215 11.903C26.9976 11.4758 26.259 11.2472 25.5028 11.2472C24.7466 11.2472 24.0081 11.4758 23.3841 11.903C22.7602 12.3303 22.28 12.9362 22.0066 13.6412C21.7331 14.3462 21.6792 15.1175 21.8519 15.8537C22.0247 16.5899 22.4159 17.2567 22.9744 17.7666C22.2389 18.0846 21.5707 18.5399 21.0056 19.1081C20.4406 18.5399 19.7724 18.0846 19.0369 17.7666C19.5953 17.2567 19.9866 16.5899 20.1593 15.8537C20.332 15.1175 20.2781 14.3462 20.0047 13.6412C19.7313 12.9362 19.2511 12.3303 18.6271 11.903C18.0032 11.4758 17.2646 11.2472 16.5084 11.2472C15.7522 11.2472 15.0137 11.4758 14.3898 11.903C13.7658 12.3303 13.2856 12.9362 13.0122 13.6412C12.7387 14.3462 12.6848 15.1175 12.8576 15.8537C13.0303 16.5899 13.4215 17.2567 13.98 17.7666C12.9569 18.2069 12.0672 18.9081 11.4 19.8C11.3409 19.8788 11.2979 19.9685 11.2735 20.0639C11.249 20.1593 11.2436 20.2586 11.2575 20.3561C11.2715 20.4536 11.3045 20.5474 11.3546 20.6321C11.4048 20.7169 11.4712 20.7909 11.55 20.85ZM25.5 12.75C25.945 12.75 26.38 12.882 26.75 13.1292C27.12 13.3764 27.4084 13.7278 27.5787 14.139C27.749 14.5501 27.7936 15.0025 27.7068 15.439C27.62 15.8754 27.4057 16.2763 27.091 16.591C26.7763 16.9057 26.3754 17.12 25.939 17.2068C25.5025 17.2936 25.0501 17.249 24.639 17.0787C24.2278 16.9084 23.8764 16.62 23.6292 16.25C23.382 15.88 23.25 15.445 23.25 15C23.25 14.4033 23.4871 13.831 23.909 13.409C24.331 12.9871 24.9033 12.75 25.5 12.75ZM16.5 12.75C16.945 12.75 17.38 12.882 17.75 13.1292C18.12 13.3764 18.4084 13.7278 18.5787 14.139C18.749 14.5501 18.7936 15.0025 18.7068 15.439C18.62 15.8754 18.4057 16.2763 18.091 16.591C17.7763 16.9057 17.3754 17.12 16.939 17.2068C16.5025 17.2936 16.0501 17.249 15.639 17.0787C15.2278 16.9084 14.8764 16.62 14.6292 16.25C14.382 15.88 14.25 15.445 14.25 15C14.25 14.4033 14.4871 13.831 14.909 13.409C15.331 12.9871 15.9033 12.75 16.5 12.75ZM28.0312 27.5166C28.5897 27.0067 28.981 26.3399 29.1537 25.6037C29.3264 24.8675 29.2725 24.0962 28.9991 23.3912C28.7256 22.6862 28.2454 22.0803 27.6215 21.653C26.9976 21.2258 26.259 20.9972 25.5028 20.9972C24.7466 20.9972 24.0081 21.2258 23.3841 21.653C22.7602 22.0803 22.28 22.6862 22.0066 23.3912C21.7331 24.0962 21.6792 24.8675 21.8519 25.6037C22.0247 26.3399 22.4159 27.0067 22.9744 27.5166C22.2389 27.8346 21.5707 28.2899 21.0056 28.8581C20.4406 28.2899 19.7724 27.8346 19.0369 27.5166C19.5953 27.0067 19.9866 26.3399 20.1593 25.6037C20.332 24.8675 20.2781 24.0962 20.0047 23.3912C19.7313 22.6862 19.2511 22.0803 18.6271 21.653C18.0032 21.2258 17.2646 20.9972 16.5084 20.9972C15.7522 20.9972 15.0137 21.2258 14.3898 21.653C13.7658 22.0803 13.2856 22.6862 13.0122 23.3912C12.7387 24.0962 12.6848 24.8675 12.8576 25.6037C13.0303 26.3399 13.4215 27.0067 13.98 27.5166C12.9569 27.9569 12.0672 28.6581 11.4 29.55C11.3409 29.6288 11.2979 29.7185 11.2735 29.8139C11.249 29.9093 11.2436 30.0086 11.2575 30.1061C11.2715 30.2036 11.3045 30.2974 11.3546 30.3821C11.4048 30.4669 11.4712 30.5409 11.55 30.6C11.6288 30.6591 11.7185 30.7021 11.8139 30.7265C11.9093 30.751 12.0086 30.7564 12.1061 30.7425C12.2036 30.7285 12.2974 30.6955 12.3821 30.6454C12.4669 30.5952 12.5409 30.5288 12.6 30.45C13.0541 29.8445 13.6429 29.3531 14.3198 29.0147C14.9968 28.6762 15.7432 28.5 16.5 28.5C17.2568 28.5 18.0032 28.6762 18.6802 29.0147C19.3571 29.3531 19.9459 29.8445 20.4 30.45C20.5195 30.609 20.6972 30.714 20.8941 30.742C21.091 30.7699 21.291 30.7185 21.45 30.5991C21.5067 30.5569 21.5569 30.5067 21.5991 30.45C22.0532 29.8445 22.642 29.3531 23.3189 29.0147C23.9958 28.6762 24.7422 28.5 25.4991 28.5C26.2559 28.5 27.0023 28.6762 27.6792 29.0147C28.3561 29.3531 28.945 29.8445 29.3991 30.45C29.5185 30.6091 29.6963 30.7143 29.8933 30.7423C30.0903 30.7704 30.2904 30.719 30.4495 30.5995C30.6087 30.4801 30.7138 30.3023 30.7419 30.1053C30.7699 29.9083 30.7185 29.7082 30.5991 29.5491C29.9352 28.6591 29.0499 27.9583 28.0312 27.5166ZM16.5 22.5C16.945 22.5 17.38 22.632 17.75 22.8792C18.12 23.1264 18.4084 23.4778 18.5787 23.889C18.749 24.3001 18.7936 24.7525 18.7068 25.189C18.62 25.6254 18.4057 26.0263 18.091 26.341C17.7763 26.6557 17.3754 26.87 16.939 26.9568C16.5025 27.0436 16.0501 26.999 15.639 26.8287C15.2278 26.6584 14.8764 26.37 14.6292 26C14.382 25.63 14.25 25.195 14.25 24.75C14.25 24.1533 14.4871 23.581 14.909 23.159C15.331 22.7371 15.9033 22.5 16.5 22.5ZM25.5 22.5C25.945 22.5 26.38 22.632 26.75 22.8792C27.12 23.1264 27.4084 23.4778 27.5787 23.889C27.749 24.3001 27.7936 24.7525 27.7068 25.189C27.62 25.6254 27.4057 26.0263 27.091 26.341C26.7763 26.6557 26.3754 26.87 25.939 26.9568C25.5025 27.0436 25.0501 26.999 24.639 26.8287C24.2278 26.6584 23.8764 26.37 23.6292 26C23.382 25.63 23.25 25.195 23.25 24.75C23.25 24.1533 23.4871 23.581 23.909 23.159C24.331 22.7371 24.9033 22.5 25.5 22.5Z" fill="#262626"/>
</svg>
